<svg width="1212" height="1023" viewBox="0 0 1212 1023" fill="none" xmlns="http://www.w3.org/2000/svg">
<path d="M414.204 950.808C402.383 978.153 363.608 978.153 351.787 950.808L71.8425 303.242C62.1384 280.794 78.596 255.75 103.051 255.75L662.939 255.75C687.395 255.75 703.852 280.794 694.148 303.242L414.204 950.808Z" fill="#F24E1E"/>
<path d="M859.352 950.808C847.531 978.153 808.756 978.153 796.935 950.808L516.99 303.242C507.286 280.794 523.744 255.75 548.199 255.75L1108.09 255.75C1132.54 255.75 1149 280.794 1139.3 303.242L859.352 950.808Z" fill="#6392EF"/>
<mask id="mask0_8_18" style="mask-type:alpha" maskUnits="userSpaceOnUse" x="51" y="255" width="664" height="769">
<path d="M382.995 1023L51.3118 255.75L714.679 255.75L382.995 1023Z" fill="#F24E1E"/>
</mask>
<g mask="url(#mask0_8_18)">
<path d="M828.143 1023L496.459 255.75L1159.83 255.75L828.143 1023Z" fill="#F9D745"/>
</g>
<g clip-path="url(#clip0_8_18)">
<path d="M453.333 410.712C453.333 340.786 396.648 284.101 326.722 284.101C256.797 284.101 200.111 340.786 200.111 410.712C200.111 480.637 256.797 537.323 326.722 537.323C396.648 537.323 453.333 480.637 453.333 410.712Z" fill="#D5E2E8"/>
<path d="M389.24 410.712C389.24 376.184 361.25 348.194 326.722 348.194C292.195 348.194 264.205 376.184 264.205 410.712C264.205 445.239 292.195 473.229 326.722 473.229C361.25 473.229 389.24 445.239 389.24 410.712Z" fill="#3CC4DC"/>
<path d="M346.686 410.712C346.686 399.686 337.748 390.748 326.722 390.748C315.697 390.748 306.759 399.686 306.759 410.712C306.759 421.737 315.697 430.675 326.722 430.675C337.748 430.675 346.686 421.737 346.686 410.712Z" fill="#272828"/>
<path d="M458.587 410.712C458.587 445.934 444.871 479.048 419.965 503.954C395.059 528.86 361.945 542.576 326.722 542.576C291.5 542.576 258.386 528.86 233.48 503.954C208.574 479.048 194.858 445.934 194.858 410.712C194.858 375.49 208.574 342.376 233.48 317.469C258.386 292.563 291.5 278.847 326.722 278.847C361.945 278.847 395.059 292.563 419.965 317.469C444.871 342.376 458.587 375.49 458.587 410.712ZM205.365 410.712C205.365 477.628 259.806 532.069 326.722 532.069C393.639 532.069 448.08 477.628 448.08 410.712C448.08 343.795 393.639 289.354 326.722 289.354C259.806 289.354 205.365 343.795 205.365 410.712Z" fill="black"/>
<path d="M394.494 410.712C394.494 448.081 364.092 478.483 326.722 478.483C289.353 478.483 258.951 448.081 258.951 410.712C258.951 373.343 289.353 342.941 326.722 342.941C364.092 342.941 394.494 373.343 394.494 410.712ZM269.459 410.712C269.459 442.287 295.147 467.975 326.722 467.975C358.298 467.975 383.986 442.287 383.986 410.712C383.986 379.136 358.298 353.448 326.722 353.448C295.147 353.448 269.459 379.136 269.459 410.712Z" fill="black"/>
<path d="M351.939 410.712C351.939 424.616 340.627 435.929 326.722 435.929C312.817 435.929 301.505 424.616 301.505 410.712C301.505 396.807 312.817 385.495 326.722 385.495C340.627 385.495 351.939 396.807 351.939 410.712ZM312.012 410.712C312.012 418.823 318.611 425.422 326.722 425.422C334.834 425.422 341.433 418.823 341.433 410.712C341.433 402.601 334.834 396.002 326.722 396.002C318.611 396.002 312.012 402.601 312.012 410.712Z" fill="black"/>
<path d="M331.976 303.539C331.976 306.44 329.624 308.792 326.723 308.792C280.919 308.792 240.492 339.607 228.411 383.729C227.645 386.528 224.755 388.175 221.957 387.408C219.159 386.642 217.51 383.751 218.277 380.954C231.605 332.28 276.199 298.285 326.723 298.285C329.624 298.285 331.976 300.637 331.976 303.539Z" fill="black"/>
<path d="M225.052 403.352C225.052 403.472 225.048 403.591 225.04 403.713C224.883 406.026 224.803 408.381 224.803 410.712C224.803 413.613 222.451 415.965 219.55 415.965C216.649 415.965 214.296 413.613 214.296 410.712C214.296 408.145 214.383 405.551 214.556 403.002C214.752 400.107 217.258 397.919 220.153 398.116C222.927 398.303 225.052 400.612 225.052 403.352Z" fill="black"/>
</g>
<g clip-path="url(#clip1_8_18)">
<path d="M892.815 532.283C962.741 532.283 1019.43 475.598 1019.43 405.672C1019.43 335.747 962.741 279.061 892.815 279.061C822.89 279.061 766.204 335.747 766.204 405.672C766.204 475.598 822.89 532.283 892.815 532.283Z" fill="#D5E2E8"/>
<path d="M892.815 468.19C927.343 468.19 955.333 440.2 955.333 405.672C955.333 371.145 927.343 343.155 892.815 343.155C858.287 343.155 830.297 371.145 830.297 405.672C830.297 440.2 858.287 468.19 892.815 468.19Z" fill="#3CC4DC"/>
<path d="M892.815 425.636C903.841 425.636 912.779 416.698 912.779 405.672C912.779 394.647 903.841 385.709 892.815 385.709C881.79 385.709 872.852 394.647 872.852 405.672C872.852 416.698 881.79 425.636 892.815 425.636Z" fill="#272828"/>
<path d="M892.815 537.537C857.593 537.537 824.479 523.821 799.573 498.914C774.667 474.009 760.951 440.895 760.951 405.672C760.951 370.45 774.667 337.336 799.573 312.43C824.479 287.524 857.593 273.808 892.815 273.808C928.037 273.808 961.151 287.524 986.058 312.43C1010.96 337.336 1024.68 370.45 1024.68 405.672C1024.68 440.895 1010.96 474.009 986.058 498.914C961.151 523.821 928.037 537.537 892.815 537.537ZM892.815 284.315C825.899 284.315 771.458 338.756 771.458 405.672C771.458 472.589 825.899 527.03 892.815 527.03C959.732 527.03 1014.17 472.589 1014.17 405.672C1014.17 338.756 959.732 284.315 892.815 284.315Z" fill="black"/>
<path d="M892.815 473.444C855.446 473.444 825.044 443.042 825.044 405.672C825.044 368.303 855.446 337.901 892.815 337.901C930.184 337.901 960.586 368.303 960.586 405.672C960.586 443.042 930.184 473.444 892.815 473.444ZM892.815 348.409C861.24 348.409 835.551 374.097 835.551 405.672C835.551 437.248 861.24 462.936 892.815 462.936C924.39 462.936 950.079 437.248 950.079 405.672C950.079 374.097 924.39 348.409 892.815 348.409Z" fill="black"/>
<path d="M892.815 430.889C878.911 430.889 867.598 419.577 867.598 405.672C867.598 391.767 878.911 380.455 892.815 380.455C906.72 380.455 918.032 391.767 918.032 405.672C918.032 419.577 906.72 430.889 892.815 430.889ZM892.815 390.962C884.704 390.962 878.105 397.561 878.105 405.672C878.105 413.784 884.704 420.382 892.815 420.382C900.926 420.382 907.525 413.784 907.525 405.672C907.525 397.561 900.926 390.962 892.815 390.962Z" fill="black"/>
<path d="M999.988 410.926C997.087 410.926 994.735 408.573 994.735 405.672C994.735 359.868 963.92 319.442 919.798 307.361C917 306.595 915.352 303.705 916.119 300.907C916.885 298.108 919.776 296.46 922.573 297.227C971.247 310.554 1005.24 355.149 1005.24 405.672C1005.24 408.573 1002.89 410.926 999.988 410.926Z" fill="black"/>
<path d="M900.175 304.002C900.055 304.002 899.936 303.998 899.814 303.99C897.501 303.833 895.146 303.753 892.815 303.753C889.913 303.753 887.562 301.401 887.562 298.5C887.562 295.599 889.913 293.246 892.815 293.246C895.382 293.246 897.976 293.334 900.525 293.506C903.42 293.702 905.607 296.208 905.411 299.103C905.224 301.877 902.915 304.002 900.175 304.002Z" fill="black"/>
</g>
<defs>
<clipPath id="clip0_8_18">
<rect width="263.729" height="263.729" fill="white" transform="translate(194.858 542.576) rotate(-90)"/>
</clipPath>
<clipPath id="clip1_8_18">
<rect width="263.729" height="263.729" fill="white" transform="translate(760.951 273.808)"/>
</clipPath>
</defs>
</svg>
